<?xml version="1.0" encoding="UTF-8" standalone="no"?>
<svg
   width="320"
   height="240"
   version="1.1"
   id="svg1"
   sodipodi:docname="360_controller_UI.svg"
   inkscape:version="1.3.2 (1:1.3.2+202311252150+091e20ef0f)"
   inkscape:export-filename="controller.png"
   inkscape:export-xdpi="96"
   inkscape:export-ydpi="96"
   xml:space="preserve"
   xmlns:inkscape="http://www.inkscape.org/namespaces/inkscape"
   xmlns:sodipodi="http://sodipodi.sourceforge.net/DTD/sodipodi-0.dtd"
   xmlns="http://www.w3.org/2000/svg"
   xmlns:svg="http://www.w3.org/2000/svg"><defs
     id="defs1"><rect
       x="31.895109"
       y="87.175762"
       width="459.58331"
       height="101.02283"
       id="rect2" /><filter
       inkscape:collect="always"
       style="color-interpolation-filters:sRGB"
       id="filter1683"
       x="-0.01333309"
       width="1.0266662"
       y="-0.013333092"
       height="1.0266662"><feGaussianBlur
         inkscape:collect="always"
         stdDeviation="0.01191697"
         id="feGaussianBlur1685" /></filter></defs><sodipodi:namedview
     id="namedview1"
     pagecolor="#ffffff"
     bordercolor="#666666"
     borderopacity="1.0"
     inkscape:showpageshadow="2"
     inkscape:pageopacity="0.0"
     inkscape:pagecheckerboard="0"
     inkscape:deskcolor="#d1d1d1"
     inkscape:zoom="1.8526198"
     inkscape:cx="167.06072"
     inkscape:cy="72.330007"
     inkscape:window-width="1850"
     inkscape:window-height="1016"
     inkscape:window-x="1150"
     inkscape:window-y="640"
     inkscape:window-maximized="1"
     inkscape:current-layer="svg1" /><metadata
     id="metadata590">image/svg+xml</metadata><rect
     style="fill:#000000;stroke-width:0.744567;stroke-linecap:round;paint-order:markers fill stroke"
     id="rect1"
     width="320"
     height="240"
     x="0"
     y="0" /><g
     id="Right_Trigger"
     transform="matrix(0.21333021,0,0,0.21333021,-52.687887,18.741453)" /><g
     id="Shape_23_1_"
     transform="matrix(0.21333021,0,0,0.21333021,-52.687887,18.741453)"><g
       id="Shape_23"><g
         id="g522" /></g></g><g
     id="Shape_26_1_"
     transform="matrix(0.21333021,0,0,0.21333021,-52.687887,18.741453)"><g
       id="Shape_26"><g
         id="g528" /></g></g><g
     id="Shape_7_copy_1_"
     transform="matrix(0.21333021,0,0,0.21333021,-52.722881,21.14705)"
     style="fill:#ffffff"><g
       id="Shape_7_copy"
       style="fill:#ffffff"><g
         id="g6"
         style="fill:#ffffff"><path
           id="path8"
           d="m 1151.385,208.63699 c -1.436,-13.38501 -3.2729,-17.921 -8.954,-23.335 -6.74,-6.424 -13.315,-8.98 -30.227,-10.137 -52.2169,-3.571 -157.84499,-4.476 -214.21297,-1.17601 -20.75702,1.21502 -24.22901,-0.81298 -34.34204,7.20301 -7.22595,5.727 -9.36896,11.571 -11.81,22.425 -4.68201,20.825 -7.18695,46.58301 -7.18695,46.58301 H 1153.077 c 10e-4,0 0.411,-21.94101 -1.692,-41.56301 z"
           style="fill:#ffffff" /></g></g></g><g
     id="Shape_7_copy_2_1_"
     transform="matrix(0.21333021,0,0,0.21333021,-52.722881,21.14705)"
     style="fill:#000000"><g
       id="Shape_7_copy_2"
       style="fill:#000000"><g
         id="g12"
         style="fill:#000000"><path
           fill="#ffffff"
           id="path14"
           d="m 1149.158,210.37199 c -1.414,-13.18901 -3.226,-17.65899 -8.823,-22.994 -6.642,-6.33 -13.121,-8.85001 -29.7851,-9.989 -51.454,-3.51899 -155.54093,-4.41 -211.08695,-1.158 -20.45398,1.197 -23.875,-0.801 -33.841,7.098 -7.12,5.644 -9.232,11.402 -11.63703,22.098 -4.61297,20.52099 -7.08197,45.903 -7.08197,45.903 H 1150.827 c 0,-0.001 0.404,-21.622 -1.669,-40.958 z"
           style="fill:#000000" /></g></g></g><g
     id="Shape_30_1_"
     transform="matrix(0.21333021,0,0,0.21333021,-52.722881,21.14705)"
     style="fill:#ffffff"><g
       id="Shape_30"
       style="fill:#ffffff"><g
         id="g18"
         style="fill:#ffffff"><path
           id="path20"
           d="M 1053.73,190.24499 H 947.14203 c -5.52301,0 -10,5.39 -10,12.03801 v 7.48999 c 0,6.64801 4.47699,12.03802 10,12.03802 h 106.58907 c 5.522,0 10,-5.39 10,-12.03801 v -7.48999 c 0,-6.64801 -4.478,-12.03801 -10.0011,-12.03801 z"
           style="fill:#ffffff" /></g></g></g><g
     id="Shape_31_1_"
     transform="matrix(0.21333021,0,0,0.21333021,-52.722881,21.14705)"
     style="fill:#ffffff"><g
       id="Shape_31"
       style="fill:#ffffff"><g
         id="g24"
         style="fill:#ffffff"><rect
           id="rect26"
           y="204.862"
           x="853.07098"
           height="1"
           width="297.069"
           style="fill:#ffffff" /></g></g></g><g
     id="Shape_30_copy_1_"
     transform="matrix(0.21333021,0,0,0.21333021,-52.722881,21.14705)"
     style="fill:#000000"><g
       id="Shape_30_copy"
       style="fill:#000000"><g
         id="g30"
         style="fill:#000000"><path
           fill="#ffffff"
           id="path32"
           d="M 1052.511,191.58299 H 948.36096 c -5.39599,0 -9.77099,4.933 -9.77099,11.01799 v 6.85501 c 0,6.08499 4.375,11.01799 9.77099,11.01799 H 1052.51 c 5.396,0 9.771,-4.933 9.771,-11.01799 v -6.85501 c 0,-6.08499 -4.374,-11.01799 -9.77,-11.01799 z"
           style="fill:#000000" /></g></g></g><g
     stroke="#000000"
     stroke-width="5"
     stroke-miterlimit="4"
     id="Shape_1_1_"
     transform="matrix(0.21333021,0,0,0.21333021,-52.722881,21.14705)"
     style="stroke:#ffffff;fill:#000000"><g
       stroke="#000000"
       stroke-width="5"
       stroke-miterlimit="4"
       id="Shape_1"
       style="stroke:#ffffff;fill:#000000"><g
         stroke="#000000"
         stroke-width="5"
         stroke-miterlimit="4"
         id="g42"
         style="stroke:#ffffff;fill:#000000"><path
           fill="#ffffff"
           stroke="#000000"
           stroke-width="5"
           stroke-miterlimit="4"
           id="path44"
           d="m 1541.95,465.89999 c 0,0 -45.6821,-136.815 -71.429,-174.57 -34.014,-49.87799 -85.436,-106.057 -104.7101,-113.99199 -19.2739,-7.93502 -81.6329,-9.30101 -97.506,-2.5 -15.8719,6.80198 -67.66,53.14499 -107.343,64.47999 -39.683,11.33499 -272.07396,5.668 -303.81993,1.13401 -31.74604,-4.53402 -47.75299,-5.43502 -74.96399,-23.57201 -27.211,-18.13699 -40.78101,-40.408 -49.85205,-44.942 -9.06897,-4.534 -75.49799,-3.89999 -92.50501,2.90001 -17.00696,6.80199 -73.42895,60.67999 -115.37896,129.82698 -41.95002,69.14801 -86.697,221.05603 -90.97101,256.45599 -7.93701,65.74799 -4.134,119.36103 -2.134,130.36103 2,11 16.95901,86.64495 72.92901,110.19 72.51596,30.50696 175.67197,-32.14002 249.496,-61.05805 76.92701,-30.13397 95.03296,-27.59497 148.72998,-27.59497 106.57596,0 98.61496,-1.13299 205.21606,-1.13299 108.8429,0 199.412,57.31299 249.299,76.58301 49.8869,19.26995 86.436,33.10595 134.0549,2.5 47.619,-30.60602 66.76,-89.28504 73.5631,-148.23102 C 1571.428,583.79199 1541.95,465.9 1541.95,465.9 Z"
           style="stroke:#ffffff;fill:#000000" /></g></g></g><g
     id="Shape_16_copy_2_1_"
     transform="matrix(0.21333021,0,0,0.21333021,-52.722881,21.14705)"
     style="fill:#ffffff"><g
       id="Shape_16_copy_2"
       style="fill:#ffffff"><g
         id="g48"
         style="fill:#ffffff"><ellipse
           fill="#f2f2f2"
           id="ellipse50"
           ry="107.348"
           rx="132.164"
           cy="631.73999"
           cx="825.89398"
           style="fill:#ffffff" /></g></g></g><g
     id="Shape_16_copy_3_1_"
     transform="matrix(0.21333021,0,0,0.21333021,-52.722881,21.14705)"
     style="fill:#000000"><g
       id="Shape_16_copy_3"
       style="fill:#000000"><g
         id="g54"
         style="fill:#000000"><ellipse
           fill="#ffffff"
           id="ellipse56"
           ry="103.491"
           rx="127.415"
           cy="631.73999"
           cx="825.89398"
           style="fill:#000000" /></g></g></g><g
     id="Shape_16_copy_4_1_"
     transform="matrix(0.21333021,0,0,0.21333021,-52.722881,21.14705)"
     style="fill:#ffffff"><g
       id="Shape_16_copy_4"
       style="fill:#ffffff"><g
         id="g60"
         style="fill:#ffffff"><ellipse
           fill="#f2f2f2"
           id="ellipse62"
           ry="90.323997"
           rx="121.673"
           cy="633.14697"
           cx="1163.479"
           style="fill:#ffffff" /></g></g></g><g
     id="Shape_16_copy_5_1_"
     transform="matrix(0.21333021,0,0,0.21333021,-52.722881,21.14705)"
     style="fill:#000000"><g
       id="Shape_16_copy_5"
       style="fill:#000000"><g
         id="g66"
         style="fill:#000000"><ellipse
           fill="#ffffff"
           id="ellipse68"
           ry="87.079002"
           rx="117.301"
           cy="633.14801"
           cx="1163.479"
           style="fill:#000000" /></g></g></g><g
     id="Shape_16_copy_6_1_"
     transform="matrix(0.21333021,0,0,0.21333021,-52.722881,21.14705)"
     style="fill:#ffffff"><g
       id="Shape_16_copy_6"
       style="fill:#ffffff"><g
         id="g72"
         style="fill:#ffffff"><path
           fill="#f2f2f2"
           id="path74"
           d="m 660.58502,370.76401 c -70.526,-12.48001 -134.13501,21.246 -142.073,75.328 C 510.574,500.17502 561.31,554.13403 631.836,566.61304 702.362,579.09198 765.97101,545.367 773.909,491.285 781.84802,437.202 731.11102,383.24301 660.58502,370.76401 Z"
           style="fill:#ffffff" /></g></g></g><g
     id="Shape_16_copy_7_1_"
     transform="matrix(0.21333021,0,0,0.21333021,-52.722881,21.14705)"
     style="fill:#000000"><g
       id="Shape_16_copy_7"
       style="fill:#000000"><g
         id="g78"
         style="fill:#000000"><path
           fill="#ffffff"
           id="path80"
           d="m 660.06799,374.28201 c -67.992,-12.031 -129.31396,20.482 -136.96802,72.62201 -7.65301,52.13898 41.26001,104.15897 109.25202,116.18997 67.992,12.03101 129.31403,-20.48199 136.96802,-72.62198 7.65399,-52.138 -41.25904,-104.15899 -109.25202,-116.19 z"
           style="fill:#000000" /></g></g></g><g
     id="Shape_16_1_"
     transform="matrix(0.21333021,0,0,0.21333021,-52.722881,21.14705)"
     style="fill:#ffffff"><g
       id="Shape_16"
       style="fill:#ffffff"><g
         id="g84"
         style="fill:#ffffff"><ellipse
           id="ellipse86"
           ry="92.953003"
           rx="112.28"
           cy="646.14001"
           cx="824.29901"
           style="fill:#ffffff" /></g></g></g><g
     id="Shape_16_copy_1_"
     transform="matrix(0.21333021,0,0,0.21333021,-52.722881,21.14705)"
     style="fill:#000000"><g
       id="Shape_16_copy"
       style="fill:#000000"><g
         id="g90"
         style="fill:#000000"><ellipse
           fill="#ffffff"
           id="ellipse92"
           ry="89.612999"
           rx="108.246"
           cy="646.14001"
           cx="824.29901"
           style="fill:#000000" /></g></g></g><g
     id="Shape_12_1_"
     transform="matrix(0.21333021,0,0,0.21333021,-52.722881,21.14705)"
     style="fill:#ffffff"><g
       id="Shape_12"
       style="fill:#ffffff"><g
         id="g96"
         style="fill:#ffffff"><ellipse
           id="ellipse98"
           ry="60.362999"
           rx="83.491997"
           cy="649.54102"
           cx="1161.724"
           style="fill:#ffffff" /></g></g></g><g
     id="Shape_12_copy_6_1_"
     transform="matrix(0.21333021,0,0,0.21333021,-52.722881,21.14705)"
     style="fill:#000000"><g
       id="Shape_12_copy_6"
       style="fill:#000000"><g
         id="g102"
         style="fill:#000000"><ellipse
           fill="#424242"
           id="ellipse104"
           ry="58.657001"
           rx="81.133003"
           cy="649.53998"
           cx="1161.724"
           style="fill:#000000" /></g></g></g><g
     id="Shape_12_copy_1_"
     transform="matrix(0.21333021,0,0,0.21333021,-52.722881,21.14705)"
     style="fill:#ffffff"><g
       id="Shape_12_copy"
       style="fill:#ffffff"><g
         id="g108"
         style="fill:#ffffff"><ellipse
           id="ellipse110"
           ry="60.362999"
           rx="74.830002"
           cy="683.54797"
           cx="1163.266"
           style="fill:#ffffff" /></g></g></g><g
     id="Shape_12_copy_7_1_"
     transform="matrix(0.21333021,0,0,0.21333021,-52.722881,21.14705)"
     style="fill:#000000"><g
       id="Shape_12_copy_7"
       style="fill:#000000"><g
         id="g114"
         style="fill:#000000"><ellipse
           fill="#515151"
           id="ellipse116"
           ry="57.360001"
           rx="71.107002"
           cy="683.54797"
           cx="1163.266"
           style="fill:#000000" /></g></g></g><g
     id="Shape_12_copy_4_1_"
     transform="matrix(0.21333021,0,0,0.21333021,-52.722881,21.14705)"
     style="fill:#ffffff"><g
       id="Shape_12_copy_4"
       style="fill:#ffffff"><g
         id="g126"
         style="fill:#ffffff"><ellipse
           id="ellipse128"
           ry="77.369003"
           rx="93.945"
           cy="648.099"
           cx="826.08197"
           style="fill:#ffffff" /></g></g></g><g
     id="Shape_12_copy_5_1_"
     transform="matrix(0.21333021,0,0,0.21333021,-52.722881,21.14705)"
     style="fill:#000000"><g
       id="Shape_12_copy_5"
       style="fill:#000000"><g
         id="g132"
         style="fill:#000000"><ellipse
           fill="#515151"
           id="ellipse134"
           ry="75.376999"
           rx="91.527"
           cy="648.09698"
           cx="826.08197"
           style="fill:#000000" /></g></g></g><g
     id="Shape_15_1_"
     transform="matrix(0.21333021,0,0,0.21333021,-52.722881,21.14705)"
     style="fill:#ffffff"><g
       id="Shape_15"
       style="fill:#ffffff"><g
         id="g138"
         style="fill:#ffffff"><ellipse
           id="ellipse140"
           ry="70.967003"
           rx="87.538002"
           cy="657.58801"
           cx="823.979"
           style="fill:#ffffff" /></g></g></g><g
     id="Shape_15_copy_1_"
     transform="matrix(0.21333021,0,0,0.21333021,-52.722881,21.14705)"
     style="fill:#000000"><g
       id="Shape_15_copy"
       style="fill:#000000"><g
         id="g144"
         style="fill:#000000"><ellipse
           fill="#515151"
           id="ellipse146"
           ry="68.697998"
           rx="84.737999"
           cy="657.58899"
           cx="823.979"
           style="fill:#000000" /></g></g></g><g
     id="Shape_14_1_"
     transform="matrix(0.21333021,0,0,0.21333021,-52.722881,21.14705)"
     style="fill:#ffffff"><g
       id="Shape_14"
       style="fill:#ffffff"><g
         id="g150"
         style="fill:#ffffff"><path
           id="path152"
           d="m 908.091,637.66199 c 0,0 -29.34002,-0.68598 -41.23101,-13.42401 -11.89197,-12.73902 -11.40101,-33.10498 -11.40101,-33.10498 0,0 -16.46099,-4.18103 -31.47198,-4.59803 -15.55798,-0.432 -30.37097,4.61304 -30.37097,4.61304 0,0 1.69897,21.69 -10.19306,34.42999 -11.89196,12.73798 -42.45495,10.89301 -42.45495,10.89301 0,0 -4.11304,10.23895 -4.11304,20.85699 0,11.43299 4.80005,23.646 4.80005,23.646 0,0 30.04095,-2.02502 41.08295,9.01501 11.04303,11.03998 9.85101,33.75995 9.85101,33.75995 0,0 17.82403,4.80005 34.15601,4.80005 16.789,0 34.15399,-6.85699 34.15399,-6.85699 0,0 -2.69599,-10.63501 10.04498,-29.31806 12.74103,-18.68298 37.67102,-17.01696 37.67102,-17.01696 0,0 2.263,-8.42798 2.47199,-18.03602 0.21405,-9.92102 -2.99598,-19.65899 -2.99598,-19.65899 z"
           style="fill:#ffffff" /></g></g></g><g
     id="Shape_14_copy_1_"
     transform="matrix(0.21333021,0,0,0.21333021,-52.722881,21.14705)"
     style="fill:#000000"><g
       id="Shape_14_copy"
       style="fill:#000000"><g
         id="g156"
         style="fill:#000000"><path
           fill="#515151"
           id="path158"
           d="m 905.75598,638.21399 c 0,0 -28.526,-0.66699 -40.08801,-13.052 -11.56201,-12.38599 -11.08399,-32.18702 -11.08399,-32.18702 0,0 -16.00402,-4.06396 -30.59802,-4.46997 -15.12695,-0.42004 -29.52795,4.48499 -29.52795,4.48499 0,0 1.651,21.08801 -9.91004,33.474 -11.56201,12.38501 -41.276,10.59003 -41.276,10.59003 0,0 -4,9.95495 -4,20.27795 0,11.11499 4.667,22.98999 4.667,22.98999 0,0 29.20703,-1.96997 39.94201,8.76501 10.73603,10.73304 9.57703,32.82202 9.57703,32.82202 0,0 17.32995,4.66602 33.20898,4.66602 16.32196,0 33.206,-6.66602 33.206,-6.66602 0,0 -2.62201,-10.34002 9.76599,-28.50402 12.38702,-18.16498 36.62402,-16.54499 36.62402,-16.54499 0,0 2.19995,-8.19397 2.40295,-17.53497 0.21003,-9.643 -2.90997,-19.11102 -2.90997,-19.11102 z"
           style="fill:#000000" /></g></g></g><g
     id="Shape_13_1_"
     transform="matrix(0.21333021,0,0,0.21333021,-52.722881,21.14705)"
     style="fill:#ffffff"><g
       id="Shape_13"
       style="fill:#ffffff"><g
         id="g162"
         style="fill:#ffffff"><circle
           id="circle164"
           r="4.0570002"
           cy="649.42999"
           cx="1163.908"
           style="fill:#ffffff" /></g></g></g><g
     id="Shape_13_copy_1_"
     transform="matrix(0.21333021,0,0,0.21333021,-52.722881,21.14705)"
     style="fill:#ffffff"><g
       id="Shape_13_copy"
       style="fill:#ffffff"><g
         id="g168"
         style="fill:#ffffff"><circle
           id="circle170"
           r="4.0570002"
           cy="727.047"
           cx="1163.908"
           style="fill:#ffffff" /></g></g></g><g
     id="Shape_13_copy_2_1_"
     transform="matrix(0.21333021,0,0,0.21333021,-52.722881,21.14705)"
     style="fill:#ffffff"><g
       id="Shape_13_copy_2"
       style="fill:#ffffff"><g
         id="g174"
         style="fill:#ffffff"><circle
           id="circle176"
           r="4.0570002"
           cy="691.64001"
           cx="1214.928"
           style="fill:#ffffff" /></g></g></g><g
     id="Shape_13_copy_3_1_"
     transform="matrix(0.21333021,0,0,0.21333021,-52.722881,21.14705)"
     style="fill:#ffffff"><g
       id="Shape_13_copy_3"
       style="fill:#ffffff"><g
         id="g180"
         style="fill:#ffffff"><circle
           id="circle182"
           r="4.0570002"
           cy="691.64001"
           cx="1116.2889"
           style="fill:#ffffff" /></g></g></g><g
     id="Shape_13_copy_4_1_"
     transform="matrix(0.21333021,0,0,0.21333021,-52.722881,21.14705)"><g
       id="Shape_13_copy_4"><g
         id="g186"><circle
           id="circle188"
           r="4.0570002"
           cy="480.79401"
           cx="643.5" /></g></g></g><g
     id="Shape_12_copy_9_1_"
     transform="matrix(0.21333021,0,0,0.21333021,-52.722881,21.14705)"
     style="fill:#ffffff"><g
       id="Shape_12_copy_9"
       style="fill:#ffffff"><g
         id="g192"
         style="fill:#ffffff"><ellipse
           id="ellipse194"
           ry="60.362999"
           rx="83.491997"
           cy="486.30499"
           cx="648.11798"
           style="fill:#ffffff" /></g></g></g><g
     id="Shape_12_copy_10_1_"
     transform="matrix(0.21333021,0,0,0.21333021,-52.722881,21.14705)"
     style="fill:#000000"><g
       id="Shape_12_copy_10"
       style="fill:#000000"><g
         id="g198"
         style="fill:#000000"><ellipse
           fill="#424242"
           id="ellipse200"
           ry="58.657001"
           rx="81.133003"
           cy="486.30499"
           cx="648.11798"
           style="fill:#000000" /></g></g></g><g
     id="Shape_12_copy_11_1_"
     transform="matrix(0.21333021,0,0,0.21333021,-52.722881,21.14705)"
     style="fill:#ffffff"><g
       id="Shape_12_copy_11"
       style="fill:#ffffff"><g
         id="g204"
         style="fill:#ffffff"><ellipse
           id="ellipse206"
           ry="60.362999"
           rx="74.830002"
           cy="520.31299"
           cx="649.65997"
           style="fill:#ffffff" /></g></g></g><g
     id="Shape_12_copy_12_1_"
     transform="matrix(0.21333021,0,0,0.21333021,-52.722881,21.14705)"
     style="fill:#000000"><g
       id="Shape_12_copy_12"
       style="fill:#000000"><g
         id="g210"
         style="fill:#000000"><ellipse
           fill="#515151"
           id="ellipse212"
           ry="57.360001"
           rx="71.107002"
           cy="520.31299"
           cx="649.65997"
           style="fill:#000000" /></g></g></g><g
     id="Shape_13_copy_8_1_"
     transform="matrix(0.21333021,0,0,0.21333021,-52.722881,21.14705)"
     style="fill:#ffffff"><g
       id="Shape_13_copy_8"
       style="fill:#ffffff"><g
         id="g222"
         style="fill:#ffffff"><circle
           id="circle224"
           r="4.0570002"
           cy="565.81299"
           cx="650.30298"
           style="fill:#ffffff" /></g></g></g><g
     id="Shape_13_copy_9_1_"
     transform="matrix(0.21333021,0,0,0.21333021,-52.722881,21.14705)"
     style="fill:#ffffff"><g
       id="Shape_13_copy_9"
       style="fill:#ffffff"><g
         id="g228"
         style="fill:#ffffff"><circle
           id="circle230"
           r="4.0570002"
           cy="528.40399"
           cx="700.32202"
           style="fill:#ffffff" /></g></g></g><g
     id="Shape_13_copy_10_1_"
     transform="matrix(0.21333021,0,0,0.21333021,-52.722881,21.14705)"
     style="fill:#ffffff"><g
       id="Shape_13_copy_10"
       style="fill:#ffffff"><g
         id="g234"
         style="fill:#ffffff"><circle
           id="circle236"
           r="4.0570002"
           cy="528.40399"
           cx="602.68402"
           style="fill:#ffffff" /></g></g></g><g
     id="Shape_13_copy_11_1_"
     transform="matrix(0.21333021,0,0,0.21333021,-52.722881,21.14705)"
     style="fill:#ffffff"><g
       id="Shape_13_copy_11"
       style="fill:#ffffff"><g
         id="g240"
         style="fill:#ffffff"><circle
           id="circle242"
           r="4.0570002"
           cy="487.595"
           cx="650.30298"
           style="fill:#ffffff" /></g></g></g><g
     fill="#ffcc00"
     stroke="#000000"
     stroke-width="0"
     stroke-miterlimit="4"
     id="Shape_11_1_"
     transform="matrix(0.21333021,0,0,0.21333021,-52.722881,21.14705)"
     style="stroke:#ffffff;stroke-width:6.09383922;stroke-dasharray:none;fill:#000000"><g
       fill="#ffcc00"
       stroke="#000000"
       stroke-width="0"
       stroke-miterlimit="4"
       id="g246"
       style="stroke:#ffffff;stroke-width:6.09383922;stroke-dasharray:none;fill:#000000"><path
         fill="#ffcc00"
         stroke="#000000"
         stroke-width="0"
         stroke-miterlimit="4"
         id="ellipse248"
         d="m 1403.4025,385.83102 c 4.046,20.4932 -12.3382,40.9885 -36.595,45.77756 -24.2568,4.78906 -47.2009,-7.94162 -51.2468,-28.43481 -4.0461,-20.49317 12.3381,-40.98847 36.5949,-45.77753 24.2569,-4.78906 47.2008,7.94162 51.2469,28.43478 z"
         style="stroke:#ffffff;stroke-width:6.09383922;stroke-dasharray:none;fill:#000000" /></g></g><g
     stroke="#000000"
     stroke-width="0"
     stroke-miterlimit="4"
     id="Shape_11_copy_1_"
     transform="matrix(0.21333021,0,0,0.21333021,-52.722881,21.14705)"
     style="stroke:#ffffff;stroke-width:6.09383922;stroke-dasharray:none;fill:#000000"><g
       stroke="#000000"
       stroke-width="0"
       stroke-miterlimit="4"
       id="Shape_11_copy"
       style="stroke:#ffffff;stroke-width:6.09383922;stroke-dasharray:none;fill:#000000"><g
         stroke="#000000"
         stroke-width="0"
         stroke-miterlimit="4"
         id="g252"
         style="stroke:#ffffff;stroke-width:6.09383922;stroke-dasharray:none;fill:#000000"><path
           fill="#54ff00"
           stroke="#000000"
           stroke-width="0"
           stroke-miterlimit="4"
           id="path254"
           d="m 1398.453,535.242 c -3.666,-19.88403 -26.7841,-32.626 -51.637,-28.45901 -24.853,4.16702 -42.0271,23.66299 -38.362,43.54703 3.666,19.88397 26.784,32.62597 51.6369,28.45898 24.8521,-4.16602 42.0281,-23.66296 38.3621,-43.547 z"
           style="stroke:#ffffff;stroke-width:6.09383922;stroke-dasharray:none;fill:#000000" /></g></g></g><g
     stroke="#000000"
     stroke-width="0"
     stroke-miterlimit="4"
     id="Shape_11_copy_3_1_"
     transform="matrix(0.21333021,0,0,0.21333021,-52.722881,21.14705)"
     style="stroke:#ffffff;stroke-width:6.09383922;stroke-dasharray:none;fill:#000000"><g
       stroke="#000000"
       stroke-width="0"
       stroke-miterlimit="4"
       id="Shape_11_copy_3"
       style="stroke:#ffffff;stroke-width:6.09383922;stroke-dasharray:none;fill:#000000"><g
         stroke="#000000"
         stroke-width="0"
         stroke-miterlimit="4"
         id="g258"
         style="stroke:#ffffff;stroke-width:6.09383922;stroke-dasharray:none;fill:#000000"><path
           fill="#0006ff"
           stroke="#000000"
           stroke-width="0"
           stroke-miterlimit="4"
           id="path260"
           d="m 1300.955,469.078 c -1.63,-19.14401 -21.928,-33.294 -45.336,-31.60601 -23.4081,1.68801 -41.0631,18.57601 -39.432,37.72 1.631,19.14401 21.929,33.294 45.3359,31.60601 23.4091,-1.68899 41.063,-18.57601 39.4321,-37.72 z"
           style="stroke:#ffffff;stroke-width:6.09383922;stroke-dasharray:none;fill:#000000" /></g></g></g><g
     fill="#ff0000"
     stroke="#000000"
     stroke-width="0"
     stroke-miterlimit="4"
     id="Shape_11_copy_2_1_"
     transform="matrix(0.21333021,0,0,0.21333021,-52.722881,21.14705)"
     style="stroke:#ffffff;stroke-width:6.09383922;stroke-dasharray:none;fill:#000000"><g
       fill="#ff0000"
       stroke="#000000"
       stroke-width="0"
       stroke-miterlimit="4"
       id="Shape_11_copy_2"
       style="stroke:#ffffff;stroke-width:6.09383922;stroke-dasharray:none;fill:#000000"><g
         fill="#ff0000"
         stroke="#000000"
         stroke-width="0"
         stroke-miterlimit="4"
         id="g264"
         style="stroke:#ffffff;stroke-width:6.09383922;stroke-dasharray:none;fill:#000000"><path
           fill="#ff0000"
           stroke="#000000"
           stroke-width="0"
           stroke-miterlimit="4"
           id="path266"
           d="m 1489.496,448.06299 c -5.94,-17.56299 -29.0501,-25.39801 -51.616,-17.50101 -22.566,7.896 -36.0441,28.53601 -30.104,46.099 5.9399,17.56302 29.0499,25.397 51.616,17.50101 22.567,-7.89801 36.046,-28.53699 30.104,-46.099 z"
           style="stroke:#ffffff;stroke-width:6.09383922;stroke-dasharray:none;fill:#000000" /></g></g></g><g
     id="Shape_8_1_"
     transform="matrix(0.21333021,0,0,0.21333021,-52.722881,21.14705)"
     style="fill:#ffffff"><g
       id="Shape_8"
       style="fill:#ffffff"><g
         id="g270"
         style="fill:#ffffff"><path
           id="path272"
           d="M 1079.51,266.10699 H 927.29602 c -6.34003,0 -11.479,0.038 -11.479,6.37702 0,6.33798 5.13995,16.578 11.479,16.578 H 1079.51 c 6.34,0 11.48,-10.24002 11.48,-16.578 0,-6.33801 -5.14,-6.37702 -11.48,-6.37702 z"
           style="fill:#ffffff" /></g></g></g><g
     id="Shape_9_1_"
     transform="matrix(0.21333021,0,0,0.21333021,-52.722881,21.14705)"
     style="fill:#ffffff"><g
       id="Shape_9"
       style="fill:#ffffff"><g
         id="g276"
         style="fill:#ffffff"><path
           id="path278"
           d="m 888.198,267.854 -16.70001,-3.216 c -4.14997,-0.79901 -8.16199,1.91699 -8.96198,6.06699 -0.79901,4.14901 1.91797,8.16101 6.06799,8.96002 l 16.70002,3.216 c 4.14996,0.79898 8.16198,-1.918 8.96197,-6.06702 C 895.065,272.664 892.349,268.65201 888.198,267.854 Z"
           style="fill:#ffffff" /></g></g></g><g
     id="Shape_9_copy_1_"
     transform="matrix(0.21333021,0,0,0.21333021,-52.722881,21.14705)"
     style="fill:#000000"><g
       id="Shape_9_copy"
       style="fill:#000000"><g
         id="g282"
         style="fill:#000000"><path
           fill="#ffffff"
           id="path284"
           d="m 886.23798,269.034 -13.35901,-2.57099 c -3.31897,-0.64001 -6.529,1.53299 -7.16901,4.853 -0.63995,3.31998 1.534,6.52899 4.85401,7.168 L 883.922,281.056 c 3.32,0.64002 6.52997,-1.53299 7.16998,-4.854 0.63898,-3.319 -1.53302,-6.52799 -4.854,-7.168 z"
           style="fill:#000000" /></g></g></g><g
     id="Shape_10_1_"
     transform="matrix(0.21333021,0,0,0.21333021,-52.722881,21.14705)"><g
       id="Shape_10"><g
         id="g288"><path
           fill="#bfbfbf"
           id="path290"
           d="m 1147.108,257.181 c -5.836,1.444 -277.49698,4.142 -296.76895,-0.85101 -49.54303,-12.83199 -93.56103,-25.35498 -93.56103,-25.35498 v 2.25799 c 0,0 30.28002,10.18401 92.71002,26.499 24.125,6.30499 276.13406,5.10101 297.61906,0.85 58.4029,-11.55501 104.1669,-27.20599 104.1669,-27.20599 V 229.976 c 0,-9.9e-4 -47.31,13.13701 -104.166,27.205 z" /></g></g></g><g
     id="Shape_10_copy_1_"
     transform="matrix(0.21333021,0,0,0.21333021,-52.722881,21.14705)"><g
       id="Shape_10_copy"><g
         id="g294"><path
           fill="#bfbfbf"
           id="path296"
           d="m 1254.031,285.81299 c 0,0 -68.557,37.949 -121.163,59.091 -5.1619,2.07501 -67.258,4.26001 -131.842,3.664 -64.69,-0.59601 -131.87201,-3.979 -140.79401,-8.285 -46.656,-22.52201 -108.234,-57.26599 -108.234,-57.26599 v 3.16998 c 0,0 43.289,26.04602 104.93798,56.935 11.39405,5.70901 77.49506,7.789 143.72403,8.535 62.521,0.70301 124.938,-0.289 134.9101,-3.99798 60.1999,-22.388 120.7719,-59.741 120.7719,-59.741 z" /></g></g></g><g
     id="Shape_4_1_"
     transform="matrix(0.21333021,0,0,0.21333021,-52.722881,21.14705)"
     style="fill:#ffffff"><g
       id="Shape_4"
       style="fill:#ffffff"><g
         id="g300"
         style="fill:#ffffff"><path
           id="path302"
           d="M 757.65301,231.25 C 750,222.748 691.25,230.31 636.117,238.312 c -50.06396,7.266 -81.63202,21.451 -89.28497,29.10301 -7.65301,7.65198 -20.45502,41.08297 -10.268,42.05298 11.40399,1.086 54.56298,-17.31098 104.75897,-22.732 58.013,-6.26599 106.77704,2.487 111.22802,-1.07199 8.50397,-6.80402 12.75501,-45.912 5.10199,-54.414 z"
           style="fill:#ffffff" /></g></g></g><g
     id="Shape_4_copy_1_"
     transform="matrix(0.21333021,0,0,0.21333021,-52.722881,21.14705)"
     style="fill:#000000"><g
       id="Shape_4_copy"
       style="fill:#000000"><g
         id="g306"
         style="fill:#000000"><path
           fill="#ffffff"
           id="path308"
           d="m 754.453,233.81799 c -7.38403,-7.711 -64.54303,-0.376 -117.737,6.87999 -48.30298,6.59001 -79.64197,20.94499 -87.02502,27.885 -7.383,6.94 -21.23596,36.71902 -11.40698,37.599 11.00299,0.98401 55.026,-18.55799 103.45599,-23.47498 55.97302,-5.68301 104.45001,3.20898 108.74402,-0.02 8.20398,-6.168 11.35303,-41.159 3.96899,-48.86899 z"
           style="fill:#000000" /></g></g></g><g
     id="Shape_5_1_"
     transform="matrix(0.21333021,0,0,0.21333021,-52.722881,21.14705)"
     style="fill:#ffffff"><g
       id="Shape_5"
       style="fill:#ffffff"><g
         id="g312"
         style="fill:#ffffff"><path
           id="path314"
           d="m 887.30603,455.44 h -24.19098 c -12.24402,0 -22.169,9.92401 -22.169,22.16501 0,12.241 9.92498,22.16498 22.169,22.16498 h 24.19098 c 12.24402,0 22.16901,-9.92398 22.16901,-22.16498 0,-12.241 -9.92499,-22.16501 -22.16901,-22.16501 z"
           style="fill:#ffffff" /></g></g></g><g
     id="Shape_5_copy_1_"
     transform="matrix(0.21333021,0,0,0.21333021,-52.722881,21.14705)"
     style="fill:#000000"><g
       id="Shape_5_copy"
       style="fill:#000000"><g
         id="g318"
         style="fill:#000000"><path
           fill="#ffffff"
           id="path320"
           d="m 885.91803,457.98801 h -21.41602 c -10.83801,0 -19.625,8.785 -19.625,19.62201 0,10.83599 8.78699,19.621 19.625,19.621 h 21.41602 c 10.83899,0 19.625,-8.78501 19.625,-19.621 0,-10.83701 -8.78601,-19.62201 -19.625,-19.62201 z"
           style="fill:#000000" /></g></g></g><g
     id="Shape_2_copy_3_1_"
     transform="matrix(0.21333021,0,0,0.21333021,-52.722881,21.14705)"
     style="fill:#ffffff"><g
       id="Shape_2_copy_3"
       style="fill:#ffffff"><g
         id="g324"
         style="fill:#ffffff"><path
           id="path326"
           d="m 717.401,118.461 c -2.65997,-7.82 -65.854,-3.199 -71.74902,4.137 -3.63599,5.803 -0.38495,22.04 -3.43897,42.85101 -4.83398,32.92498 -12.57904,62.96499 -12.57904,62.96499 l 76.31806,-6.011 c 0,0 11.14294,-15.015 12.75695,-34.373 2.06,-24.692 3.37403,-55.806 -1.30798,-69.569 z"
           style="fill:#ffffff" /></g></g></g><g
     id="Shape_2_copy_1_"
     transform="matrix(0.21333021,0,0,0.21333021,-52.722881,21.14705)"
     style="fill:#000000"><g
       id="Shape_2_copy"
       style="fill:#000000"><g
         id="g330"
         style="fill:#000000"><path
           fill="#ffffff"
           id="path332"
           d="m 715.49402,120.847 c -2.53998,-7.468 -62.883,-3.055 -68.513,3.95 -3.47199,5.541 -0.36701,21.046 -3.28497,40.918 -4.61506,31.44 -12.01105,60.126 -12.01105,60.126 l 74.04504,-4.97 c 0,0 9.40998,-14.66099 10.94098,-32.748 2.008,-23.70801 3.34699,-53.977 -1.177,-67.276 z"
           style="fill:#000000" /></g></g></g><g
     id="g336"
     transform="matrix(0.21333021,0,0,0.21333021,-52.722881,21.14705)"
     style="fill:#ffffff"><path
       fill="#7f7f7f"
       id="path338"
       d="m 710.20898,120.55345 c -0.80535,2.1069 -0.45581,34.06424 -1.93621,56.89409 -1.48041,22.82985 -5.74054,43.63985 -5.74054,43.63985 l 3.20428,-0.20384 c 0,0 4.95044,-30.36104 5.50269,-43.08518 0.55224,-12.72413 1.4776,-54.2043 2.37579,-55.94592 0.89819,-1.74162 1.35742,-1.78693 1.35742,-1.78693 0,0 -0.57397,-0.5527 -1.36157,-0.8981 -0.7876,-0.3454 -1.91394,-0.69094 -1.91394,-0.69094 0,0 -0.68256,-0.0299 -1.48792,2.07697 z"
       style="fill:#ffffff" /></g><g
     id="Shape_4_copy_2_1_"
     transform="matrix(0.21333021,0,0,0.21333021,-52.722881,21.14705)"
     style="fill:#ffffff"><g
       id="Shape_4_copy_2"
       style="fill:#ffffff"><g
         id="g342"
         style="fill:#ffffff"><path
           id="path344"
           d="m 1459.9709,267.414 c -7.6529,-7.651 -39.2209,-21.83701 -89.285,-29.103 -55.1329,-8.002 -113.8829,-15.563 -121.536,-7.06201 -7.653,8.50101 -3.401,47.61002 5.103,54.41202 4.45,3.56 53.214,-5.19302 111.2281,1.07199 50.1949,5.422 93.354,23.81799 104.759,22.732 10.1859,-0.96799 -2.6161,-34.39899 -10.2691,-42.051 z"
           style="fill:#ffffff" /></g></g></g><g
     id="Shape_4_copy_3_1_"
     transform="matrix(0.21333021,0,0,0.21333021,-52.722881,21.14705)"
     style="fill:#000000"><g
       id="Shape_4_copy_3"
       style="fill:#000000"><g
         id="g348"
         style="fill:#000000"><path
           fill="#ffffff"
           id="path350"
           d="m 1457.1121,268.58301 c -7.3841,-6.939 -38.7231,-21.295 -87.0251,-27.885 -53.1939,-7.25599 -110.354,-14.591 -117.7369,-6.88 -7.384,7.71 -4.234,42.7 3.97,48.869 4.2939,3.229 52.771,-5.66299 108.744,0.02 48.4299,4.91702 92.453,24.45902 103.4559,23.47501 9.829,-0.88001 -4.0239,-30.66001 -11.4079,-37.599 z"
           style="fill:#000000" /></g></g></g><g
     id="Shape_5_copy_2_1_"
     transform="matrix(0.21333021,0,0,0.21333021,-52.722881,21.14705)"
     style="fill:#ffffff"><g
       id="Shape_5_copy_2"
       style="fill:#ffffff"><g
         id="g354"
         style="fill:#ffffff"><path
           id="path356"
           d="m 1143.688,455.44 h -24.1911 c -12.244,0 -22.1689,9.92401 -22.1689,22.16501 0,12.241 9.9249,22.16498 22.1689,22.16498 h 24.1911 c 12.243,0 22.1689,-9.92398 22.1689,-22.16498 0,-12.241 -9.9249,-22.16501 -22.1689,-22.16501 z"
           style="fill:#ffffff" /></g></g></g><g
     id="Shape_5_copy_3_1_"
     transform="matrix(0.21333021,0,0,0.21333021,-52.722881,21.14705)"
     style="fill:#000000"><g
       id="Shape_5_copy_3"
       style="fill:#000000"><g
         id="g360"
         style="fill:#000000"><path
           fill="#ffffff"
           id="path362"
           d="m 1142.301,457.98801 h -21.416 c -10.839,0 -19.625,8.785 -19.625,19.62201 0,10.83599 8.786,19.621 19.625,19.621 h 21.416 c 10.838,0 19.625,-8.78501 19.625,-19.621 0,-10.83701 -8.787,-19.62201 -19.625,-19.62201 z"
           style="fill:#000000" /></g></g></g><g
     id="Shape_2_copy_4_1_"
     transform="matrix(0.21333021,0,0,0.21333021,-52.722881,21.14705)"
     style="fill:#ffffff"><g
       id="Shape_2_copy_4"
       style="fill:#ffffff"><g
         id="g366"
         style="fill:#ffffff"><path
           id="path368"
           d="m 1364.59,165.448 c -3.0551,-20.81101 0.196,-37.04801 -3.439,-42.851 -5.896,-7.336 -69.089,-11.957 -71.749,-4.137 -4.682,13.76301 -3.3671,44.87701 -1.308,69.568 1.614,19.358 12.756,34.373 12.756,34.373 l 76.3189,6.011 c 0,9.9e-4 -7.7449,-30.039 -12.5789,-62.964 z"
           style="fill:#ffffff" /></g></g></g><g
     id="Shape_2_copy_5_1_"
     transform="matrix(0.21333021,0,0,0.21333021,-52.722881,21.14705)"
     style="fill:#000000"><g
       id="Shape_2_copy_5"
       style="fill:#000000"><g
         id="g372"
         style="fill:#000000"><path
           fill="#ffffff"
           id="path374"
           d="m 1363.105,165.715 c -2.917,-19.872 0.188,-35.377 -3.2841,-40.918 -5.6299,-7.005 -65.9729,-11.418 -68.5129,-3.95 -4.5241,13.3 -3.1851,43.56799 -1.178,67.276 1.53,18.08701 10.9409,32.748 10.9409,32.748 l 74.0451,4.97 c 9e-4,0 -7.3941,-28.686 -12.011,-60.126 z"
           style="fill:#000000" /></g></g></g><g
     id="Shape_6_copy_2_1_"
     transform="matrix(0.21333021,0,0,0.21333021,-52.722881,21.14705)"
     style="fill:#ffffff"><g
       id="Shape_6_copy_2"
       style="fill:#ffffff"><g
         id="g384"
         style="fill:#ffffff"><ellipse
           fill="#9cff00"
           id="ellipse386"
           ry="57.227001"
           rx="70.523003"
           cy="475.25299"
           cx="1002.551"
           style="fill:#ffffff" /></g></g></g><g
     id="Shape_29_1_"
     transform="matrix(0.21333021,0,0,0.21333021,-52.722881,21.14705)"
     style="fill:#000000"><g
       id="Shape_29"
       style="fill:#000000"><g
         id="g390"
         style="fill:#000000"><rect
           fill="#ffffff"
           id="rect392"
           y="417.63101"
           x="998.43903"
           height="120.065"
           width="7.125"
           style="fill:#000000" /></g></g></g><g
     id="Shape_29_copy_1_"
     transform="matrix(0.21333021,0,0,0.21333021,-52.722881,21.14705)"
     style="fill:#000000"><g
       id="Shape_29_copy"
       style="fill:#000000"><g
         id="g396"
         style="fill:#000000"><rect
           fill="#ffffff"
           id="rect398"
           y="474.09201"
           x="927.008"
           height="7.125"
           width="150.004"
           style="fill:#000000" /></g></g></g><g
     id="Shape_6_1_"
     transform="matrix(0.21333021,0,0,0.21333021,-52.722881,21.14705)"
     style="fill:#000000"><g
       id="Shape_6"
       style="fill:#000000"><g
         id="g402"
         style="fill:#000000"><ellipse
           id="ellipse404"
           ry="47.610001"
           rx="58.674"
           cy="476.103"
           cx="1002.551"
           style="fill:#000000" /></g></g></g><g
     id="Shape_6_copy_1_"
     transform="matrix(0.21333021,0,0,0.21333021,-52.722881,21.14705)"
     style="fill:#000000"><g
       id="Shape_6_copy"
       style="fill:#000000"><g
         id="g408"
         style="fill:#000000"><ellipse
           fill="#898989"
           id="ellipse410"
           ry="44.855"
           rx="55.278"
           cy="476.103"
           cx="1003.551"
           style="fill:#000000" /></g></g></g><g
     fill="#00af00"
     stroke="#000000"
     stroke-width="0.5"
     stroke-miterlimit="4"
     id="A"
     transform="matrix(0.21333021,0,0,0.21333021,-52.722881,21.14705)"
     style="fill:#ffffff"><g
       fill="#00af00"
       stroke="#000000"
       stroke-width="0.430109"
       stroke-miterlimit="4"
       id="text413"
       style="fill:#ffffff"><path
         fill="#00af00"
         stroke="#000000"
         stroke-width="0.430109"
         stroke-miterlimit="4"
         id="path4836"
         d="m 1327.1534,560.45117 19.9583,-38.45599 h 7.4091 l 21.2698,38.45599 h -7.8343 l -6.062,-11.64697 h -21.7307 l -5.7075,11.64697 z m 14.9953,-15.79156 h 17.6186 l -5.4238,-10.65021 c -1.6544,-3.23523 -2.8834,-5.89337 -3.6868,-7.97449 -0.6617,2.46576 -1.5953,4.91419 -2.8005,7.34491 z"
         style="fill:#ffffff" /></g></g><g
     fill="#af0000"
     stroke="#000000"
     stroke-width="0.5"
     stroke-miterlimit="4"
     id="B"
     transform="matrix(0.21333021,0,0,0.21333021,-52.722881,21.14705)"
     style="fill:#ffffff"><g
       fill="#af0000"
       stroke="#000000"
       stroke-width="0.430109"
       stroke-miterlimit="4"
       id="text416"
       style="fill:#ffffff"><path
         fill="#af0000"
         stroke="#000000"
         stroke-width="0.430109"
         stroke-miterlimit="4"
         id="path4839"
         d="m 1431.2169,482.2334 v -38.456 l 20.0183,-0.65109 c 3.9682,-0.129 7.2851,-0.002 9.6839,0.7767 2.3987,0.77829 4.4078,1.71579 5.7667,3.33338 1.3589,1.6177 2.0382,3.3096 2.0384,5.0759 -2e-4,1.64392 -0.6027,3.19162 -1.8079,4.643 -1.2055,1.4516 -3.1554,2.8837 -5.5895,3.77551 3.143,0.6821 5.6898,1.5846 7.3796,3.22849 1.6897,1.6438 2.6649,3.4548 2.6649,5.6932 0,1.80131 -0.6444,3.60599 -1.6722,5.15366 -1.0282,1.5477 -2.2985,2.74124 -3.8109,3.58066 -1.5126,0.83942 -3.5393,1.73379 -5.82,2.16223 -2.2806,0.42847 -5.2071,0.92746 -8.514,1.03333 z m 6.8772,-22.29709 11.7584,-0.65112 c 3.0441,-0.16849 5.365,-0.53919 6.6885,-0.83649 1.7489,-0.3848 3.1967,-1.28351 4.0829,-2.17542 0.8862,-0.89187 1.3293,-2.01107 1.3293,-3.35769 0,-1.27658 -0.4136,-2.40018 -1.2407,-3.37079 -0.8271,-0.97049 -2.1391,-1.3747 -3.6753,-1.73319 -1.5361,-0.35852 -4.3081,-0.36963 -8.0355,-0.14712 l -10.9076,0.651 z m 0,17.75897 13.46,-0.65106 c 2.219,-0.1073 3.9116,-0.45181 4.8097,-0.57425 1.5833,-0.20984 3.037,-0.82001 4.1004,-1.30969 1.0636,-0.48966 1.938,-1.20227 2.6234,-2.13788 0.6853,-0.93561 1.1584,-2.14569 1.1584,-3.3699 0,-1.43399 -0.6266,-2.54981 -1.6192,-3.60779 -0.9926,-1.05802 -2.4996,-1.5408 -4.2601,-1.9693 -1.7607,-0.42841 -4.4301,-0.42362 -7.7343,-0.25211 l -12.5383,0.6511 z"
         style="fill:#ffffff" /></g></g><g
     fill="#af9600"
     stroke="#000000"
     id="Y"
     transform="matrix(0.21333021,0,0,0.21333021,-52.722881,21.14705)"
     style="fill:#ffffff"><g
       fill="#af9600"
       stroke="#000000"
       id="text419"
       style="fill:#ffffff"><path
         fill="#af9600"
         stroke="#000000"
         id="path4918"
         d="M 1356.3073,414.21881 V 397.9288 l -20.0292,-22.16601 h 8.3662 l 10.245,11.59451 c 1.8906,2.16849 3.6512,4.337 5.282,6.50549 1.5598,-2.01108 3.4504,-4.27578 5.672,-6.794 l 10.0677,-11.306 h 8.0116 l -20.7382,22.16601 v 16.29001 z"
         style="fill:#ffffff" /></g></g><g
     id="RB"
     transform="matrix(0.21333021,0,0,0.21333021,-52.722881,21.14705)"
     style="fill:#ffffff"><g
       fill="#808080"
       id="text422"
       style="fill:#ffffff"><path
         fill="#808080"
         id="path4842"
         d="M 1290.382,262.67191 V 242.8394 h 11.8833 c 2.3889,1.1e-4 4.2048,0.17819 5.448,0.53439 1.2432,0.35631 2.2365,0.98542 2.9801,1.88721 0.7434,0.9019 1.1152,1.8985 1.1152,2.98979 0,1.40691 -0.6156,2.59291 -1.8466,3.55791 -1.2309,0.96503 -3.1323,1.57831 -5.7039,1.83984 0.9383,0.33371 1.6513,0.66291 2.1389,0.98757 1.036,0.70347 2.0171,1.58282 2.9435,2.638 l 4.6619,5.3978 h -4.4608 l -3.5467,-4.12613 c -1.036,-1.19049 -1.8892,-2.10138 -2.5596,-2.73272 -0.6703,-0.63131 -1.2706,-1.07322 -1.8008,-1.32576 -0.5301,-0.25251 -1.0694,-0.42839 -1.6179,-0.52761 -0.4022,-0.0631 -1.0604,-0.0947 -1.9745,-0.0947 h -4.1134 v 8.8069 h -3.5467 z m 3.5467,-11.07961 h 7.6235 c 1.621,0 2.8887,-0.12399 3.8028,-0.3721 0.914,-0.248 1.6087,-0.64481 2.0841,-1.19051 0.4755,-0.54559 0.713,-1.13859 0.713,-1.7789 0,-0.93798 -0.4601,-1.70909 -1.3802,-2.3134 -0.9203,-0.60418 -2.3737,-0.90638 -4.3604,-0.90638 h -8.4828 z"
         style="fill:#ffffff" /><path
         fill="#808080"
         id="path4844"
         d="M 1317.2384,262.67191 V 242.8394 h 10.0551 c 2.0476,1.1e-4 3.6899,0.2007 4.927,0.6021 1.2371,0.4013 2.206,1.0191 2.9069,1.8533 0.7008,0.83431 1.0512,1.70689 1.0512,2.6178 0,0.8477 -0.3108,1.6459 -0.9324,2.3945 -0.6216,0.7485 -1.56,1.3528 -2.8154,1.8128 1.621,0.3517 2.8672,0.95145 3.7386,1.79921 0.8714,0.84778 1.3073,1.84887 1.3073,3.00329 0,0.92892 -0.2652,1.79251 -0.7953,2.59066 -0.5302,0.79816 -1.1853,1.4137 -1.9653,1.84659 -0.7801,0.43292 -1.7582,0.75986 -2.9344,0.98081 -1.1761,0.22097 -2.6174,0.33145 -4.3237,0.33145 z m 3.5468,-11.49901 h 5.7952 c 1.5724,0 2.6998,-0.0767 3.3824,-0.23 0.9017,-0.19839 1.5813,-0.5276 2.0384,-0.98759 0.4571,-0.4599 0.6856,-1.03711 0.6856,-1.73162 0,-0.65838 -0.2134,-1.23779 -0.6399,-1.73838 -0.4267,-0.50051 -1.036,-0.84321 -1.8282,-1.02811 -0.7923,-0.18491 -2.1513,-0.2773 -4.0769,-0.27741 h -5.3566 z m 0,9.15861 h 6.6728 c 1.1456,0 1.9501,-0.0316 2.4132,-0.0947 0.8167,-0.10822 1.4992,-0.28861 2.0476,-0.54114 0.5485,-0.25253 0.9994,-0.62003 1.3529,-1.10254 0.3534,-0.48251 0.5302,-1.03943 0.5302,-1.67075 0,-0.73953 -0.2559,-1.38214 -0.7678,-1.92778 -0.512,-0.54564 -1.2218,-0.92894 -2.1298,-1.14991 -0.9081,-0.22095 -2.2152,-0.33143 -3.9215,-0.33144 h -6.1976 v 6.81825 z"
         style="fill:#ffffff" /></g></g><g
     id="RT"
     transform="matrix(0.21333021,0,0,0.21333021,-52.722881,21.14705)"
     style="fill:#ffffff"><g
       fill="#808080"
       id="text425"
       style="fill:#ffffff"><path
         fill="#808080"
         id="path4847"
         d="m 1312.8741,215.061 v -19.8325 h 11.8833 c 2.389,1.1e-4 4.2049,0.17819 5.448,0.53439 1.2433,0.35631 2.2366,0.98542 2.9801,1.88721 0.7435,0.9019 1.1153,1.8985 1.1153,2.98981 0,1.40689 -0.6156,2.59289 -1.8466,3.55789 -1.2309,0.96503 -3.1323,1.57831 -5.704,1.83984 0.9384,0.33371 1.6514,0.66291 2.139,0.98757 1.036,0.70347 2.0172,1.58281 2.9436,2.63801 l 4.6618,5.39778 h -4.4608 l -3.5467,-4.12612 c -1.036,-1.1905 -1.8892,-2.10138 -2.5596,-2.73272 -0.6703,-0.63131 -1.2706,-1.07322 -1.8008,-1.32576 -0.5301,-0.25251 -1.0694,-0.42839 -1.6179,-0.52761 -0.4022,-0.0631 -1.0604,-0.0947 -1.9745,-0.0947 h -4.1134 v 8.80691 z m 3.5468,-11.0796 h 7.6235 c 1.621,0 2.8887,-0.12399 3.8028,-0.3721 0.914,-0.248 1.6089,-0.64481 2.0841,-1.19051 0.4754,-0.54559 0.713,-1.13859 0.713,-1.77888 0,-0.93801 -0.46,-1.70911 -1.3803,-2.31342 -0.9202,-0.60418 -2.3736,-0.90638 -4.3603,-0.90638 h -8.4828 z"
         style="fill:#ffffff" /><path
         fill="#808080"
         id="path4849"
         d="m 1346.696,215.061 v -17.49211 h -8.8303 v -2.34039 h 21.2438 v 2.34039 h -8.8668 V 215.061 Z"
         style="fill:#ffffff" /></g></g><g
     id="LB"
     transform="matrix(0.21333021,0,0,0.21333021,-52.722881,21.14705)"
     style="fill:#ffffff"><g
       fill="#808080"
       id="text428"
       style="fill:#ffffff"><path
         fill="#808080"
         id="path5007"
         d="M 673.21741,262.67191 V 242.8394 h 3.54675 v 17.49211 h 13.19958 v 2.3404 z"
         style="fill:#ffffff" /><path
         fill="#808080"
         id="path5009"
         d="M 694.05908,262.67191 V 242.8394 h 10.05506 c 2.04766,1.1e-4 3.69,0.2007 4.92706,0.6021 1.23712,0.4013 2.20605,1.0191 2.90686,1.8533 0.70087,0.83431 1.05115,1.70689 1.05127,2.6178 -1.2e-4,0.8477 -0.31079,1.6459 -0.93243,2.3945 -0.62165,0.7485 -1.56006,1.3528 -2.81537,1.8128 1.62097,0.3517 2.86712,0.95145 3.73864,1.79921 0.87134,0.84778 1.30707,1.84887 1.30719,3.00329 -1.2e-4,0.92892 -0.26513,1.79251 -0.79528,2.59066 -0.53034,0.79816 -1.18531,1.4137 -1.96534,1.84659 -0.78003,0.43292 -1.75818,0.75986 -2.93432,0.98081 -1.17615,0.22097 -2.61737,0.33145 -4.32367,0.33145 z m 3.54675,-11.49901 h 5.79529 c 1.57227,0 2.69971,-0.0767 3.3822,-0.23 0.90192,-0.19839 1.58136,-0.5276 2.03846,-0.98759 0.45703,-0.4599 0.68567,-1.03711 0.68567,-1.73162 0,-0.65838 -0.21338,-1.23779 -0.6399,-1.73838 -0.42663,-0.50051 -1.03595,-0.84321 -1.82831,-1.02811 -0.79217,-0.18491 -2.15112,-0.2773 -4.0769,-0.27741 h -5.35651 z m 0,9.15861 h 6.67292 c 1.14557,0 1.95007,-0.0316 2.41321,-0.0947 0.81665,-0.10822 1.49908,-0.28861 2.0476,-0.54114 0.5484,-0.25253 0.99939,-0.62003 1.35291,-1.10254 0.35339,-0.48251 0.53015,-1.03943 0.53015,-1.67075 0,-0.73953 -0.25592,-1.38214 -0.76788,-1.92778 -0.51191,-0.54564 -1.22193,-0.92894 -2.12977,-1.14991 -0.90814,-0.22095 -2.2152,-0.33143 -3.92163,-0.33144 h -6.19751 z"
         style="fill:#ffffff" /></g></g><g
     id="LT"
     transform="matrix(0.21333021,0,0,0.21333021,-52.722881,21.14705)"
     style="fill:#ffffff"><g
       fill="#808080"
       id="text431"
       style="fill:#ffffff"><path
         fill="#808080"
         id="path5012"
         d="m 654.89319,215.061 v -19.8325 h 3.54675 v 17.49211 h 13.19965 v 2.34039 z"
         style="fill:#ffffff" /><path
         fill="#808080"
         id="path5014"
         d="m 682.70026,215.061 v -17.49211 h -8.8302 v -2.34039 h 21.24371 v 2.34039 h -8.86676 V 215.061 Z"
         style="fill:#ffffff" /></g></g><g
     fill="#0000af"
     stroke="#000000"
     stroke-width="0.5"
     stroke-miterlimit="4"
     id="X"
     transform="matrix(0.21333021,0,0,0.21333021,-52.722881,21.14705)"
     style="fill:#ffffff"><g
       fill="#0000af"
       stroke="#000000"
       stroke-width="0.430109"
       stroke-miterlimit="4"
       id="text434"
       style="fill:#ffffff"><path
         fill="#0000af"
         stroke="#000000"
         stroke-width="0.430109"
         stroke-miterlimit="4"
         id="path4915"
         d="m 1234.3445,492.43649 20.1,-20.0412 -17.7249,-18.41479 h 8.1888 l 9.4297,9.86319 c 1.9616,2.04611 3.356,3.62002 4.1831,4.72171 1.1581,-1.39899 2.5288,-2.85919 4.1122,-4.38071 l 10.4578,-10.20419 h 7.4798 l -18.2567,18.12619 19.6747,20.3298 h -8.508 l -13.0809,-13.7193 c -0.7327,-0.78698 -1.489,-1.6438 -2.2689,-2.57071 -1.1579,1.39902 -1.9851,2.3609 -2.4814,2.88553 l -13.0456,13.40448 z"
         style="fill:#ffffff" /></g></g><g
     id="Shape_28_1_"
     transform="matrix(0.21333021,0,0,0.21333021,-52.722881,21.14705)"
     style="fill:#ffffff"><g
       id="Shape_28"
       style="fill:#ffffff"><g
         id="g438"
         style="fill:#ffffff"><polygon
           fill="#9cff00"
           id="polygon440"
           points="1041.872,507.002 1042.665,506.367 1007.438,467.961 964.982,444.123 964.19,444.758 995.068,477.273 "
           style="fill:#ffffff" /></g></g></g><g
     id="Shape_28_copy_1_"
     transform="matrix(0.21333021,0,0,0.21333021,-52.722881,21.14705)"
     style="fill:#ffffff"><g
       id="Shape_28_copy"
       style="fill:#ffffff"><g
         id="g444"
         style="fill:#ffffff"><polygon
           fill="#9cff00"
           id="polygon446"
           points="1008.932,477.273 1039.81,443.758 1039.018,443.123 996.563,467.961 961.335,506.367 962.127,507.002 "
           style="fill:#ffffff" /></g></g></g><g
     id="g4804"
     transform="matrix(0.21333021,0,0,0.21333021,-52.722881,21.14705)"
     style="fill:#ffffff"><g
       id="g4806"
       style="fill:#ffffff"><path
         fill="#7f7f7f"
         id="path4808"
         d="m 1296.0448,120.39487 c 0.8669,1.86425 0.4558,34.06425 1.9363,56.8941 1.4803,22.82985 6.2929,43.78946 6.2929,43.78946 l -3.2158,-0.18082 c 0,0 -5.4913,-30.53367 -6.0436,-43.25781 -0.5522,-12.72414 -1.4776,-54.20431 -2.3758,-55.94593 -0.8982,-1.74161 -0.9103,-1.52103 -0.9103,-1.52103 0,0 0.1256,-0.18116 0.7675,-0.62625 0.6418,-0.44509 2.3993,-1.00873 2.3993,-1.00873 0,0 0.2827,-0.007 1.1495,1.85701 z"
         style="fill:#ffffff" /></g></g><g
     id="g4810"
     transform="matrix(0.21333021,0,0,0.21333021,-52.687887,18.741453)"><g
       id="g4812"><g
         id="g4814" /></g></g><text
     xml:space="preserve"
     id="text1"
     style="font-style:normal;font-weight:normal;font-size:40px;line-height:1.25;font-family:sans-serif;white-space:pre;shape-inside:url(#rect2);display:inline;fill:#ffffff;fill-opacity:1;stroke:none"
     transform="matrix(0.57775726,0,0,0.57775726,33.599185,-39.73096)"><tspan
       x="31.894531"
       y="122.56641"
       id="tspan4"><tspan
         style="font-family:ro;-inkscape-font-specification:ro"
         id="tspan2">Virtual Xbox (wifi)</tspan></tspan></text><path
     style="fill:#ffffff;stroke-width:24.9;stroke-linecap:round;stroke-linejoin:round;paint-order:markers stroke fill;filter:url(#filter1683);stroke:#ffffff"
     d="m -21.0202,-466.971 c -258.2378,0 -467.9512,209.715 -467.9512,467.953 0,258.238 209.7134,467.959 467.9512,467.959 258.2377,0 467.9609,-209.721 467.9609,-467.959 0,-258.238 -209.7232,-467.953 -467.9609,-467.953 z m -0.7813,17.57 -0.01,0.435 a 450.40515,450.40515 0 0 1 0.7871,0 450.40515,450.40515 0 0 1 4.625,0.04 450.43024,450.42884 0 0 1 0.4629,0 450.43024,450.42884 0 0 1 108.6387,14.562 450.43024,450.42884 0 0 1 5.1718,1.381 450.43024,450.42884 0 0 1 1.7207,0.475 450.43024,450.42884 0 0 1 3.4356,0.97 450.43024,450.42884 0 0 1 8.5527,2.543 450.43024,450.42884 0 0 1 1.7051,0.529 450.43024,450.42884 0 0 1 1.7012,0.534 450.43024,450.42884 0 0 1 5.0957,1.648 450.43024,450.42884 0 0 1 1.6152,0.537 450.43024,450.42884 0 0 1 0.078,0.04 450.40515,450.40515 0 0 1 0.066,0.04 450.43024,450.42884 0 0 1 6.6465,2.282 450.43024,450.42884 0 0 1 0.039,0 450.40515,450.40515 0 0 1 0.055,0.04 450.43024,450.42884 0 0 1 3.3066,1.179 450.43024,450.42884 0 0 1 3.3203,1.213 450.43024,450.42884 0 0 1 0.033,0 450.40515,450.40515 0 0 1 0.082,0.04 450.43024,450.42884 0 0 1 1.5898,0.594 450.43024,450.42884 0 0 1 1.6699,0.629 450.43024,450.42884 0 0 1 1.5703,0.598 450.43024,450.42884 0 0 1 0.098,0.04 450.40515,450.40515 0 0 1 0.959,0.371 450.43024,450.42884 0 0 1 0.707,0.275 450.40515,450.40515 0 0 1 0.4434,0.174 450.43024,450.42884 0 0 1 1.2187,0.477 450.43024,450.42884 0 0 1 1.457,0.574 450.43024,450.42884 0 0 1 0.2032,0.08 450.40515,450.40515 0 0 1 0.2031,0.08 450.43024,450.42884 0 0 1 1.4531,0.58 450.43024,450.42884 0 0 1 1.5117,0.61 450.43024,450.42884 0 0 1 0.1446,0.06 450.40515,450.40515 0 0 1 0.123,0.05 450.43024,450.42884 0 0 1 1.5274,0.625 450.43024,450.42884 0 0 1 1.6152,0.668 450.43024,450.42884 0 0 1 0.035,0 450.40515,450.40515 0 0 1 0.051,0.04 450.43024,450.42884 0 0 1 1.5957,0.668 450.43024,450.42884 0 0 1 1.4551,0.613 450.43024,450.42884 0 0 1 0.1895,0.08 450.40515,450.40515 0 0 1 0.9433,0.401 450.43024,450.42884 0 0 1 0.6973,0.299 450.40515,450.40515 0 0 1 0.2871,0.124 450.43024,450.42884 0 0 1 1.3516,0.586 450.43024,450.42884 0 0 1 1.5078,0.659 450.43024,450.42884 0 0 1 0.1269,0.06 450.40515,450.40515 0 0 1 0.9395,0.414 450.43024,450.42884 0 0 1 0.2051,0.09 450.40515,450.40515 0 0 1 0.9746,0.432 450.40515,450.40515 0 0 1 0.4511,0.201 450.43024,450.42884 0 0 1 0.6915,0.309 450.43024,450.42884 0 0 1 1.4492,0.652 450.43024,450.42884 0 0 1 0.1777,0.08 450.40515,450.40515 0 0 1 0.9356,0.426 450.43024,450.42884 0 0 1 0.6894,0.312 450.40515,450.40515 0 0 1 0.9316,0.428 450.43024,450.42884 0 0 1 0.6895,0.318 450.40515,450.40515 0 0 1 0.3359,0.155 450.43024,450.42884 0 0 1 1.2813,0.597 450.43024,450.42884 0 0 1 1.5156,0.713 450.43024,450.42884 0 0 1 0.1,0.04 450.40515,450.40515 0 0 1 0.9278,0.442 450.43024,450.42884 0 0 1 0.6855,0.324 450.40515,450.40515 0 0 1 0.2637,0.129 450.43024,450.42884 0 0 1 1.2051,0.578 450.43024,450.42884 0 0 1 0.1386,0.07 450.40515,450.40515 0 0 1 0.9239,0.447 450.43024,450.42884 0 0 1 0.6835,0.332 450.40515,450.40515 0 0 1 0.2559,0.125 450.43024,450.42884 0 0 1 1.041,0.51 450.43024,450.42884 0 0 1 0.3047,0.147 450.40515,450.40515 0 0 1 0.9199,0.455 450.40515,450.40515 0 0 1 1.5977,0.795 450.43024,450.42884 0 0 1 0.6797,0.34 450.40515,450.40515 0 0 1 0.916,0.461 450.43024,450.42884 0 0 1 0.1426,0.07 450.40515,450.40515 0 0 1 1.0683,0.541 450.40515,450.40515 0 0 1 0.3809,0.193 450.43024,450.42884 0 0 1 0.6758,0.344 450.40515,450.40515 0 0 1 0.9121,0.469 450.43024,450.42884 0 0 1 0.6738,0.347 450.40515,450.40515 0 0 1 0.9102,0.473 450.40515,450.40515 0 0 1 1.4043,0.734 450.40515,450.40515 0 0 1 0.1777,0.09 450.43024,450.42884 0 0 1 0.6719,0.356 450.40515,450.40515 0 0 1 0.9062,0.478 450.43024,450.42884 0 0 1 0.094,0.05 450.40515,450.40515 0 0 1 1.4824,0.791 450.40515,450.40515 0 0 1 1.332,0.715 450.40515,450.40515 0 0 1 0.2403,0.129 450.43024,450.42884 0 0 1 0.6679,0.363 450.40515,450.40515 0 0 1 0.9004,0.49 450.43024,450.42884 0 0 1 0.1192,0.06 450.40515,450.40515 0 0 1 1.2421,0.681 450.40515,450.40515 0 0 1 0.2032,0.112 450.43024,450.42884 0 0 1 0.1582,0.09 450.40515,450.40515 0 0 1 1.4043,0.777 450.40515,450.40515 0 0 1 1.5586,0.869 450.40515,450.40515 0 0 1 1.1425,0.643 450.40515,450.40515 0 0 1 0.4122,0.23 450.43024,450.42884 0 0 1 0.6601,0.375 450.40515,450.40515 0 0 1 0.8906,0.508 450.43024,450.42884 0 0 1 0.08,0.04 450.40515,450.40515 0 0 1 1.4668,0.844 450.40515,450.40515 0 0 1 1.5449,0.894 450.40515,450.40515 0 0 1 1.4414,0.842 450.40515,450.40515 0 0 1 0.1,0.06 450.43024,450.42884 0 0 1 0.6543,0.384 450.40515,450.40515 0 0 1 0.8829,0.522 450.43024,450.42884 0 0 1 0.021,0 450.40515,450.40515 0 0 1 3.0391,1.818 450.40515,450.40515 0 0 1 1.5273,0.926 450.40515,450.40515 0 0 1 1.5215,0.93 450.40515,450.40515 0 0 1 4.5469,2.83 450.40515,450.40515 0 0 1 1.1973,0.754 450.40515,450.40515 0 0 1 0.3125,0.197 450.43024,450.42884 0 0 1 0.248,0.158 450.40515,450.40515 0 0 1 1.252,0.803 450.40515,450.40515 0 0 1 4.4902,2.918 450.40515,450.40515 0 0 1 1.4883,0.984 450.40515,450.40515 0 0 1 1.4844,0.99 450.40515,450.40515 0 0 1 2.957,1.998 450.40515,450.40515 0 0 1 1.4726,1.008 450.40515,450.40515 0 0 1 1.4688,1.014 450.40515,450.40515 0 0 1 8.7266,6.205 450.40515,450.40515 0 0 1 1.4394,1.057 450.40515,450.40515 0 0 1 143.7227,177.57 v 0 a 450.43024,450.42884 0 0 1 23.6406,65.426 450.43024,450.42884 0 0 1 1.8457,6.896 450.43024,450.42884 0 0 1 1.3125,5.192 450.43024,450.42884 0 0 1 0.4239,1.732 450.43024,450.42884 0 0 1 2.0156,8.693 450.43024,450.42884 0 0 1 0.7578,3.489 450.43024,450.42884 0 0 1 0.7305,3.494 450.43024,450.42884 0 0 1 5.084,29.902 450.43024,450.42884 0 0 1 0.2129,1.594 450.43024,450.42884 0 0 1 0.023,0.178 450.40515,450.40515 0 0 1 0.023,0.173 450.43024,450.42884 0 0 1 0.2051,1.594 450.43024,450.42884 0 0 1 0.2227,1.774 450.43024,450.42884 0 0 1 0.2148,1.769 450.43024,450.42884 0 0 1 0.209,1.774 450.43024,450.42884 0 0 1 0.1836,1.619 450.43024,450.42884 0 0 1 0.018,0.154 450.40515,450.40515 0 0 1 0.016,0.143 450.43024,450.42884 0 0 1 0.3652,3.406 450.43024,450.42884 0 0 1 0.1699,1.685 450.43024,450.42884 0 0 1 0.012,0.09 450.40515,450.40515 0 0 1 0.098,0.989 450.43024,450.42884 0 0 1 0.076,0.789 450.40515,450.40515 0 0 1 0.021,0.224 450.43024,450.42884 0 0 1 0.3027,3.332 450.43024,450.42884 0 0 1 0.1328,1.547 450.43024,450.42884 0 0 1 0.02,0.231 450.40515,450.40515 0 0 1 0.019,0.218 450.43024,450.42884 0 0 1 0.1269,1.559 450.43024,450.42884 0 0 1 0.3926,5.34 450.43024,450.42884 0 0 1 0.1153,1.781 450.43024,450.42884 0 0 1 0.1093,1.781 450.43024,450.42884 0 0 1 0.1035,1.782 450.43024,450.42884 0 0 1 0.09,1.668 450.43024,450.42884 0 0 1 0.01,0.113 450.40515,450.40515 0 0 1 0.01,0.109 450.43024,450.42884 0 0 1 0.082,1.672 450.43024,450.42884 0 0 1 0.072,1.594 450.43024,450.42884 0 0 1 0.01,0.189 450.40515,450.40515 0 0 1 0.01,0.19 450.43024,450.42884 0 0 1 0.066,1.592 450.43024,450.42884 0 0 1 0.066,1.785 450.43024,450.42884 0 0 1 0.057,1.691 450.43024,450.42884 0 0 1 0,0.09 450.40515,450.40515 0 0 1 0,0.09 450.43024,450.42884 0 0 1 0.051,1.693 450.43024,450.42884 0 0 1 0.039,1.389 450.40515,450.40515 0 0 1 0.021,0.986 450.40515,450.40515 0 0 1 0.012,0.401 450.43024,450.42884 0 0 1 0.016,0.792 450.43024,450.42884 0 0 1 0.025,1.481 450.43024,450.42884 0 0 1 0.01,0.295 450.40515,450.40515 0 0 1 0,0.195 450.43024,450.42884 0 0 1 0.023,1.592 450.40515,450.40515 0 0 1 0.012,0.988 450.43024,450.42884 0 0 1 0,0.266 450.40515,450.40515 0 0 1 0.01,1.322 450.40515,450.40515 0 0 1 0,0.197 450.43024,450.42884 0 0 1 0,0.793 450.40515,450.40515 0 0 1 0,0.198 450.43024,450.42884 0 0 1 0,1.582 450.40515,450.40515 0 0 1 0,1.775 450.40515,450.40515 0 0 1 -0.01,1.775 450.40515,450.40515 0 0 1 0,0.09 450.43024,450.42884 0 0 1 -0.043,3.358 450.40515,450.40515 0 0 1 0,0.113 450.40515,450.40515 0 0 1 -0.029,1.774 450.40515,450.40515 0 0 1 -0.039,1.773 450.40515,450.40515 0 0 1 -0.047,1.775 450.40515,450.40515 0 0 1 -0.053,1.774 450.40515,450.40515 0 0 1 -0.061,1.773 450.40515,450.40515 0 0 1 -0.066,1.774 450.40515,450.40515 0 0 1 -0.074,1.773 450.40515,450.40515 0 0 1 -0.082,1.774 450.40515,450.40515 0 0 1 -0.088,1.773 450.40515,450.40515 0 0 1 -0.096,1.771 450.40515,450.40515 0 0 1 -0.1016,1.772 450.40515,450.40515 0 0 1 -0.033,0.547 450.43024,450.42884 0 0 1 -0.1543,2.429 450.40515,450.40515 0 0 1 -0.039,0.577 450.40515,450.40515 0 0 1 -0.043,0.617 450.43024,450.42884 0 0 1 -0.2969,4.031 450.40515,450.40515 0 0 1 -0.053,0.684 450.40515,450.40515 0 0 1 -0.1446,1.769 450.40515,450.40515 0 0 1 -0.1523,1.766 450.40515,450.40515 0 0 1 -0.1582,1.769 450.40515,450.40515 0 0 1 -0.166,1.768 450.40515,450.40515 0 0 1 -0.1719,1.766 450.43024,450.42884 0 0 1 -0.072,0.697 450.40515,450.40515 0 0 1 -0.2168,2.096 450.40515,450.40515 0 0 1 -0.078,0.757 450.43024,450.42884 0 0 1 -0.08,0.729 450.40515,450.40515 0 0 1 -0.4473,3.941 450.40515,450.40515 0 0 1 -0.076,0.651 450.40515,450.40515 0 0 1 -0.2129,1.761 450.40515,450.40515 0 0 1 -0.2207,1.758 450.40515,450.40515 0 0 1 -0.2265,1.762 450.40515,450.40515 0 0 1 -0.2344,1.756 450.43024,450.42884 0 0 1 -0.051,0.367 450.40515,450.40515 0 0 1 -0.4004,2.871 450.40515,450.40515 0 0 1 -0.043,0.299 450.43024,450.42884 0 0 1 -0.033,0.23 450.40515,450.40515 0 0 1 -0.9883,6.512 450.40515,450.40515 0 0 1 -0.049,0.316 450.40515,450.40515 0 0 1 -0.2832,1.754 450.43024,450.42884 0 0 1 -0.043,0.264 450.40515,450.40515 0 0 1 -0.5118,3.039 450.40515,450.40515 0 0 1 -0.039,0.215 450.43024,450.42884 0 0 1 -0.033,0.201 450.40515,450.40515 0 0 1 -0.5567,3.158 450.40515,450.40515 0 0 1 -0.027,0.155 450.43024,450.42884 0 0 1 -0.029,0.162 450.40515,450.40515 0 0 1 -0.5957,3.234 450.40515,450.40515 0 0 1 -0.023,0.113 450.43024,450.42884 0 0 1 -0.084,0.44 450.40515,450.40515 0 0 1 -0.25,1.312 450.40515,450.40515 0 0 1 -1.041,5.241 450.40515,450.40515 0 0 1 -0.3593,1.736 450.40515,450.40515 0 0 1 -0.3672,1.736 450.40515,450.40515 0 0 1 -0.3731,1.733 450.40515,450.40515 0 0 1 -0.3809,1.732 450.40515,450.40515 0 0 1 -0.7832,3.471 450.40515,450.40515 0 0 1 -1.2285,5.199 450.40515,450.40515 0 0 1 -0.4218,1.723 450.40515,450.40515 0 0 1 -0.4277,1.718 450.40515,450.40515 0 0 1 -0.4355,1.719 450.40515,450.40515 0 0 1 -0.4433,1.715 450.40515,450.40515 0 0 1 -0.4492,1.717 450.40515,450.40515 0 0 1 -0.455,1.713 450.40515,450.40515 0 0 1 -17.543,52.42 450.40515,450.40515 0 0 1 -7.0195,16.408 h -0.018 v 0.04 -0.04 L 376.354,173.144 205.0533,1.834 204.2212,1.013 -20.1382,-223.346 l -172.9941,-172.99 -13.1621,-13.162 a 450.40515,450.40515 0 0 1 184.5332,-39.893 z m -203.5605,49.023 12.9414,12.942 192.2343,192.236 v 0 14.072 378.35 0 l -192.1972,192.197 -12.9668,12.967 a 450.40515,450.40515 0 0 1 -20.8965,-11.344 v -20.246 -551.926 -0.01 -187.696 -20.209 a 450.40515,450.40515 0 0 1 20.8848,-11.336 z m -40.129,23.1 v 20.896 714.731 20.932 A 450.40514,450.40514 0 0 1 -471.4187,1.001 450.40514,450.40514 0 0 1 -265.491,-377.278 Z M -0.9421,-175.96 176.0247,1.007 -0.9421,177.974 Z m 191.0449,191.049 14.0723,14.117 0.8515,0.848 v 0 l 162.3614,162.361 12.9746,12.973 a 450.40515,450.40515 0 0 1 -10.5469,19.51 c -0.9349,1.63 -1.8769,3.257 -2.832,4.877 a 450.40515,450.40515 0 0 1 -6.7305,11.05 c -0.5816,0.926 -1.1676,1.848 -1.7559,2.768 a 450.40515,450.40515 0 0 1 -2.2734,3.523 450.40515,450.40515 0 0 1 -0.1211,0.184 c -0.586,0.897 -1.1752,1.794 -1.7676,2.688 a 450.40515,450.40515 0 0 1 -0.1953,0.294 450.40515,450.40515 0 0 1 -5.7617,8.459 c -1.3162,1.888 -2.6454,3.765 -3.9902,5.631 a 450.40515,450.40515 0 0 1 -15.1329,19.817 c -0.9067,1.122 -1.8188,2.239 -2.7363,3.351 -0.019,0.02 -0.034,0.03 -0.053,0.06 a 450.40515,450.40515 0 0 1 -6.2168,7.377 c -1.8338,2.128 -3.6855,4.241 -5.5586,6.334 a 450.40515,450.40515 0 0 1 -0.3399,0.379 c -0.9441,1.054 -1.8954,2.101 -2.8496,3.146 a 450.40515,450.40515 0 0 1 -0.1933,0.213 450.40515,450.40515 0 0 1 -1.2071,1.314 450.40515,450.40515 0 0 1 -1.2128,1.311 c -0.028,0.03 -0.056,0.05 -0.086,0.09 a 450.40515,450.40515 0 0 1 -0.8086,0.867 c -0.5932,0.634 -1.1882,1.267 -1.7851,1.898 a 450.40515,450.40515 0 0 1 -0.9493,1 450.40515,450.40515 0 0 1 -1.2714,1.332 c -0.027,0.03 -0.056,0.05 -0.082,0.08 a 450.40515,450.40515 0 0 1 -1.9687,2.04 450.40515,450.40515 0 0 1 -0.078,0.08 c -1.2691,1.304 -2.5474,2.603 -3.8321,3.89 -0.3473,0.35 -0.6948,0.696 -1.0429,1.043 -0.09,0.09 -0.178,0.177 -0.2676,0.268 a 450.40515,450.40515 0 0 1 -0.2344,0.23 c -0.7994,0.796 -1.6006,1.584 -2.4062,2.373 a 450.40515,450.40515 0 0 1 -0.1348,0.133 c -0.6144,0.601 -1.2339,1.201 -1.8516,1.801 a 450.40515,450.40515 0 0 1 -1.748,1.682 450.40515,450.40515 0 0 1 -0.25,0.242 h -0.02 c -1.7137,1.638 -3.4423,3.266 -5.1816,4.871 -0.031,0.03 -0.064,0.05 -0.094,0.09 a 450.40515,450.40515 0 0 1 -0.5391,0.498 c -0.6637,0.613 -1.3291,1.224 -1.9961,1.83 -0.031,0.03 -0.064,0.05 -0.094,0.09 a 450.40515,450.40515 0 0 1 -0.3886,0.353 c -1.7504,1.589 -3.5141,3.163 -5.2891,4.725 -0.035,0.03 -0.071,0.06 -0.1055,0.1 a 450.40515,450.40515 0 0 1 -0.1093,0.09 c -1.7684,1.555 -3.5492,3.094 -5.3418,4.62 a 450.40515,450.40515 0 0 1 -2.9102,2.457 450.40515,450.40515 0 0 1 -0.5586,0.466 c -0.116,0.1 -0.2332,0.189 -0.3496,0.287 a 450.40515,450.40515 0 0 1 -0.9609,0.801 450.40515,450.40515 0 0 1 -1.4395,1.186 c -0.066,0.05 -0.1315,0.109 -0.1972,0.162 a 450.40515,450.40515 0 0 1 -1.1836,0.967 450.40515,450.40515 0 0 1 -0.2188,0.177 c -1.267,1.03 -2.5384,2.055 -3.8164,3.069 a 450.40515,450.40515 0 0 1 -0.1367,0.109 c -0.04,0.03 -0.079,0.06 -0.1192,0.09 a 450.40515,450.40515 0 0 1 -2.6855,2.115 450.40515,450.40515 0 0 1 -1.791,1.389 c -2.2765,1.76 -4.5694,3.501 -6.8789,5.217 a 450.40515,450.40515 0 0 1 -1.041,0.771 450.40515,450.40515 0 0 1 -0.2364,0.178 c -0.089,0.06 -0.1783,0.133 -0.2675,0.197 a 450.40515,450.40515 0 0 1 -2.6133,1.912 450.40515,450.40515 0 0 1 -1.4453,1.045 450.40515,450.40515 0 0 1 -1.4512,1.039 450.40515,450.40515 0 0 1 -2.8555,2.022 450.40515,450.40515 0 0 1 -0.059,0.04 c -1.4371,1.009 -2.8811,2.008 -4.33,3 a 450.40515,450.40515 0 0 1 -0.07,0.05 450.40515,450.40515 0 0 1 -2.0644,1.405 c -1.4032,0.949 -2.8106,1.888 -4.2246,2.82 a 450.40515,450.40515 0 0 1 -2.2696,1.488 450.40515,450.40515 0 0 1 -0.3496,0.227 c -0.3209,0.209 -0.6435,0.415 -0.9648,0.623 a 450.40515,450.40515 0 0 1 -0.5332,0.348 450.40515,450.40515 0 0 1 -9.0566,5.683 450.40515,450.40515 0 0 1 -0.01,0 c -0.8012,0.49 -1.6041,0.977 -2.4082,1.461 a 450.40515,450.40515 0 0 1 -3.5508,2.119 450.40515,450.40515 0 0 1 -0.1621,0.09 c -0.6467,0.382 -1.2948,0.761 -1.9434,1.139 a 450.40515,450.40515 0 0 1 -4.2343,2.437 450.40515,450.40515 0 0 1 -9.9844,5.508 c -1.3183,0.707 -2.6416,1.404 -3.9668,2.098 a 450.40515,450.40515 0 0 1 -0.1504,0.08 450.40515,450.40515 0 0 1 -4.7617,2.451 450.40515,450.40515 0 0 1 -0.059,0.04 c -0.7684,0.39 -1.5381,0.775 -2.3086,1.16 a 450.40515,450.40515 0 0 1 -15.3086,7.295 450.40515,450.40515 0 0 1 -0.019,0 c -1.1771,0.535 -2.3575,1.062 -3.5391,1.586 a 450.40515,450.40515 0 0 1 -7.7754,3.359 450.40515,450.40515 0 0 1 -1.7793,0.745 h -0.031 a 450.40515,450.40515 0 0 1 -9.6407,3.875 450.40515,450.40515 0 0 1 -0.2636,0.105 c -0.036,0 -0.072,0.04 -0.1094,0.04 a 450.40515,450.40515 0 0 1 -31.3359,10.844 c -0.7679,0.234 -1.5357,0.467 -2.3047,0.697 -0.068,0.02 -0.1336,0.02 -0.2012,0.06 a 450.40515,450.40515 0 0 1 -3.2207,0.951 450.40515,450.40515 0 0 1 -0.2617,0.08 c -0.7778,0.226 -1.557,0.447 -2.336,0.67 a 450.40515,450.40515 0 0 1 -3.8965,1.09 c -0.8604,0.236 -1.722,0.468 -2.5839,0.699 a 450.40515,450.40515 0 0 1 -3.7266,0.982 c -0.8976,0.234 -1.7962,0.465 -2.6953,0.692 h -0.061 a 450.40515,450.40515 0 0 1 -90.5742,13.269 c -0.1461,0.04 -0.2916,0.04 -0.4375,0.04 a 450.40515,450.40515 0 0 1 -19.2285,0.413 450.40515,450.40515 0 0 1 -185.3125,-39.889 L -20.1876,225.373 Z"
     id="path2660"
     transform="matrix(0.03326748,0,0,0.03326748,25.459805,23.794083)" /></svg>
